<?xml version="1.0" encoding="iso-8859-1"?>
<!-- Generator: Adobe Illustrator 19.0.0, SVG Export Plug-In . SVG Version: 6.00 Build 0)  -->
<svg version="1.1" id="Capa_1" xmlns="http://www.w3.org/2000/svg" xmlns:xlink="http://www.w3.org/1999/xlink" x="0px" y="0px"
	 viewBox="0 0 512 512" style="enable-background:new 0 0 512 512;" xml:space="preserve">
<path style="fill:#4CAF50;" d="M479.765,213.021c-9.493-7.317-20.245-15.552-22.293-22.08c-0.661-10.88,1.323-21.739,5.76-31.68
	c5.931-18.219,12.075-37.099,1.899-51.541s-30.912-16.064-50.859-17.451c-11.136,0.299-22.208-1.877-32.405-6.4
	c-6.933-8.213-11.819-17.941-14.251-28.416c-6.08-17.557-12.971-37.483-30.357-43.307c-16.725-5.675-33.835,5.056-50.368,15.424
	c-9.067,7.061-19.627,11.925-30.891,14.229c-11.243-2.283-21.824-7.147-30.891-14.187c-16.533-10.347-33.643-21.077-50.347-15.424
	c-17.408,5.824-24.299,25.728-30.379,43.264c-2.432,10.475-7.317,20.224-14.251,28.459c-10.197,4.501-21.269,6.699-32.405,6.4
	c-19.968,1.387-40.533,2.837-50.88,17.451s-4.032,33.323,1.899,51.541c4.437,9.941,6.421,20.8,5.76,31.68
	c-2.133,6.528-12.8,14.763-22.293,22.059C16.384,225.181,0,237.767,0,255.986s16.384,30.784,32.235,42.965
	c9.493,7.317,20.245,15.552,22.293,22.08c0.661,10.88-1.323,21.739-5.76,31.68c-5.931,18.219-12.075,37.099-1.899,51.541
	c10.176,14.443,30.912,16.064,50.859,17.451c11.136-0.299,22.208,1.877,32.405,6.4c6.933,8.213,11.819,17.941,14.251,28.416
	c6.08,17.557,12.971,37.483,30.357,43.307c18.24,2.496,36.651-3.136,50.368-15.424c9.067-7.061,19.627-11.925,30.891-14.229
	c11.243,2.283,21.824,7.147,30.891,14.187c11.819,9.216,25.877,15.104,40.725,17.067c3.264,0.021,6.528-0.512,9.621-1.557
	c17.387-5.803,24.299-25.728,30.379-43.307c2.432-10.453,7.317-20.181,14.229-28.395c10.197-4.501,21.269-6.699,32.405-6.4
	c19.947-1.387,40.533-2.837,50.88-17.451s4.032-33.323-1.899-51.541c-4.437-9.941-6.421-20.8-5.76-31.68
	c2.133-6.528,12.8-14.763,22.293-22.059C495.616,286.792,512,274.205,512,255.986S495.616,225.202,479.765,213.021z"/>
<g>
	<path style="fill:#FAFAFA;" d="M181.333,201.672c5.888,0,10.667-4.779,10.667-10.667s-4.779-10.667-10.667-10.667h-64
		c-5.888,0-10.667,4.779-10.667,10.667v128c0,5.888,4.779,10.667,10.667,10.667h64c5.888,0,10.667-4.779,10.667-10.667
		s-4.779-10.667-10.667-10.667H128v-42.667h32c5.888,0,10.667-4.779,10.667-10.667c0-5.888-4.779-10.667-10.667-10.667h-32v-42.667
		H181.333z"/>
	<path style="fill:#FAFAFA;" d="M256,201.672c11.776,0,21.333,9.557,21.333,21.333c0,5.888,4.779,10.667,10.667,10.667
		s10.667-4.779,10.667-10.667c0-23.573-19.093-42.667-42.667-42.667s-42.667,19.093-42.667,42.667v64
		c0,23.573,19.093,42.667,42.667,42.667s42.667-19.093,42.667-42.667c0-5.888-4.779-10.667-10.667-10.667
		s-10.667,4.779-10.667,10.667c0,11.776-9.557,21.333-21.333,21.333s-21.333-9.557-21.333-21.333v-64
		C234.667,211.229,244.224,201.672,256,201.672z"/>
	<path style="fill:#FAFAFA;" d="M362.667,180.338c-23.573,0-42.667,19.093-42.667,42.667v64c0,23.573,19.093,42.667,42.667,42.667
		c23.573,0,42.667-19.093,42.667-42.667v-64C405.333,199.431,386.24,180.338,362.667,180.338z M384,287.005
		c0,11.776-9.557,21.333-21.333,21.333s-21.333-9.557-21.333-21.333v-64c0-11.776,9.557-21.333,21.333-21.333
		S384,211.229,384,223.005V287.005z"/>
</g>
<path d="M184.32,501.319c-3.179,0-6.379-0.448-9.557-1.515c-17.408-5.781-24.299-25.728-30.4-43.285
	c-4.075-11.797-8.299-23.957-14.251-28.437c-6.08-4.565-20.139-5.525-32.533-6.357c-19.883-1.344-40.448-2.752-50.816-17.323
	c-10.219-14.507-4.053-33.344,1.877-51.584c3.755-11.52,8-24.555,5.76-31.659c-2.027-6.656-12.8-14.933-22.315-22.272
	C16.32,286.728,0,274.184,0,255.986c0-18.219,16.384-30.805,32.235-42.987c9.493-7.275,20.245-15.552,22.293-22.08
	c2.219-7.104-2.005-20.16-5.76-31.659c-5.931-18.261-12.075-37.12-1.899-51.584c10.304-14.613,30.976-16.043,50.944-17.429
	c12.395-0.853,26.411-1.813,32.469-6.315c5.931-4.395,10.112-16.576,14.165-28.373c6.059-17.621,12.907-37.589,30.336-43.371
	c16.747-5.525,33.771,5.141,50.261,15.445c11.157,6.955,22.677,14.165,30.955,14.165c8.277,0,19.797-7.211,30.933-14.187
	c16.491-10.325,33.472-20.992,50.304-15.445c17.387,5.845,24.299,25.749,30.379,43.307c4.075,11.776,8.299,23.936,14.251,28.416
	c6.059,4.565,20.139,5.525,32.533,6.357c19.904,1.344,40.448,2.752,50.816,17.301c10.219,14.485,4.053,33.344-1.877,51.563
	c-3.733,11.541-7.979,24.597-5.76,31.723c2.048,6.635,12.821,14.933,22.315,22.229C495.68,225.223,512,237.789,512,255.986
	c0,18.219-16.384,30.805-32.235,42.987c-9.472,7.296-20.245,15.552-22.315,22.08c-2.219,7.125,2.027,20.16,5.781,31.659
	c5.931,18.24,12.053,37.12,1.899,51.584c-10.304,14.635-30.976,16.043-50.965,17.408c-12.395,0.853-26.411,1.835-32.469,6.336
	c-5.909,4.395-10.133,16.555-14.187,28.331c-6.08,17.579-12.971,37.504-30.379,43.328c-16.683,5.632-33.707-5.035-50.197-15.36
	c-11.136-6.976-22.656-14.187-30.933-14.187c-8.277,0-19.797,7.211-30.933,14.187C211.691,492.722,197.952,501.319,184.32,501.319z
	 M184.363,31.986c-1.024,0-1.963,0.128-2.816,0.427c-7.424,2.475-12.459,17.131-16.917,30.08
	c-5.099,14.848-10.389,30.229-21.611,38.549c-11.072,8.235-27.669,9.387-43.733,10.496c-14.293,0.981-30.528,2.112-34.987,8.448
	c-4.032,5.717,0.64,20.032,4.757,32.683c4.971,15.253,10.091,31.019,5.824,44.651c-4.075,12.949-17.088,22.955-29.675,32.619
	c-11.179,8.597-23.872,18.347-23.872,26.048s12.629,17.408,23.765,26.005c12.608,9.728,25.664,19.776,29.675,32.832
	c4.267,13.568-0.875,29.333-5.845,44.608c-4.096,12.629-8.768,26.944-4.736,32.64c4.459,6.293,20.608,7.403,34.837,8.363
	c16.107,1.109,32.789,2.219,43.925,10.603c11.157,8.405,16.448,23.68,21.589,38.485c4.48,12.928,9.557,27.584,16.96,30.037
	c7.296,2.432,20.523-5.931,32.256-13.269c13.696-8.576,27.84-17.429,42.24-17.429c14.4,0,28.565,8.853,42.24,17.429
	c11.712,7.296,24.811,15.701,32.064,13.227c7.488-2.496,12.544-17.173,17.024-30.101c5.12-14.827,10.432-30.144,21.653-38.485
	c11.072-8.235,27.669-9.365,43.712-10.475c14.315-0.981,30.528-2.112,35.008-8.448c4.011-5.739-0.64-20.032-4.757-32.683
	c-4.949-15.253-10.112-31.019-5.803-44.651c4.053-12.949,17.088-22.955,29.675-32.619c11.157-8.619,23.851-18.347,23.851-26.069
	c0-7.68-12.651-17.429-23.787-26.005c-12.608-9.728-25.643-19.755-29.653-32.811c-4.288-13.568,0.853-29.355,5.824-44.629
	c4.117-12.629,8.768-26.923,4.757-32.64c-4.459-6.272-20.608-7.381-34.837-8.341c-16.128-1.088-32.789-2.219-43.947-10.603
	c-11.136-8.405-16.448-23.701-21.589-38.485c-4.48-12.928-9.536-27.563-16.981-30.059c-7.189-2.496-20.48,5.909-32.235,13.291
	C284.565,54.258,270.4,63.133,256,63.133c-14.4,0-28.544-8.875-42.24-17.429C203.413,39.218,191.872,31.986,184.363,31.986z"/>
<path d="M181.333,329.672h-64c-5.888,0-10.667-4.779-10.667-10.667v-128c0-5.888,4.779-10.667,10.667-10.667h64
	c5.888,0,10.667,4.779,10.667,10.667s-4.779,10.667-10.667,10.667H128v106.667h53.333c5.888,0,10.667,4.779,10.667,10.667
	S187.221,329.672,181.333,329.672z"/>
<path d="M160,265.672h-42.667c-5.888,0-10.667-4.779-10.667-10.667c0-5.888,4.779-10.667,10.667-10.667H160
	c5.888,0,10.667,4.779,10.667,10.667C170.667,260.893,165.888,265.672,160,265.672z"/>
<path d="M256,329.672c-23.531,0-42.667-19.136-42.667-42.667v-64c0-23.531,19.136-42.667,42.667-42.667s42.667,19.136,42.667,42.667
	c0,5.888-4.779,10.667-10.667,10.667s-10.667-4.779-10.667-10.667c0-11.755-9.579-21.333-21.333-21.333
	c-11.755,0-21.333,9.579-21.333,21.333v64c0,11.776,9.579,21.333,21.333,21.333c11.755,0,21.333-9.557,21.333-21.333
	c0-5.888,4.779-10.667,10.667-10.667s10.667,4.779,10.667,10.667C298.667,310.535,279.531,329.672,256,329.672z"/>
<path d="M362.667,329.672c-23.531,0-42.667-19.136-42.667-42.667v-64c0-23.531,19.136-42.667,42.667-42.667
	s42.667,19.136,42.667,42.667v64C405.333,310.535,386.197,329.672,362.667,329.672z M362.667,201.672
	c-11.776,0-21.333,9.579-21.333,21.333v64c0,11.776,9.557,21.333,21.333,21.333S384,298.781,384,287.005v-64
	C384,211.25,374.443,201.672,362.667,201.672z"/>
<g>
</g>
<g>
</g>
<g>
</g>
<g>
</g>
<g>
</g>
<g>
</g>
<g>
</g>
<g>
</g>
<g>
</g>
<g>
</g>
<g>
</g>
<g>
</g>
<g>
</g>
<g>
</g>
<g>
</g>
</svg>
