<?xml version="1.0" encoding="iso-8859-1"?>
<!-- Generator: Adobe Illustrator 19.0.0, SVG Export Plug-In . SVG Version: 6.00 Build 0)  -->
<svg version="1.1" id="Capa_1" xmlns="http://www.w3.org/2000/svg" xmlns:xlink="http://www.w3.org/1999/xlink" x="0px" y="0px"
	 viewBox="0 0 512.001 512.001" style="enable-background:new 0 0 512.001 512.001;" xml:space="preserve">
<path style="fill:#52B6FC;" d="M17.312,219.676c4.265,129.376,110.472,232.952,240.885,232.952s236.62-103.576,240.886-232.952
	H17.312z"/>
<path style="fill:#3B97D6;" d="M255.717,219.676v232.921c0.827,0.008,1.651,0.031,2.48,0.031
	c130.414,0,236.62-103.576,240.885-232.952L255.717,219.676L255.717,219.676z"/>
<path style="fill:#265185;" d="M482.006,211.033c0,37.014-8.852,72.664-25.53,104.551h-79.417
	c9.502-32.429,14.439-67.557,14.439-103.701h-29.994c0,36.492-5.425,71.742-15.829,103.701h-74.678v-103.7h-29.994v103.701h-74.674
	c-10.404-31.959-15.829-67.208-15.829-103.701h-29.994c0,36.144,4.937,71.271,14.439,103.701h-79.42
	c-16.678-31.888-25.53-67.538-25.53-104.552H0c0,68.381,26.629,132.667,74.98,181.02s112.639,74.98,181.02,74.98
	s132.667-26.629,181.02-74.98s74.981-112.639,74.981-181.02H482.006z M333.99,345.578c-0.39,0.848-0.777,1.698-1.175,2.54
	c-15.509,32.844-36.618,59.174-61.818,77.365v-79.904L333.99,345.578L333.99,345.578z M241.003,345.578v79.901
	c-25.198-18.19-46.306-44.52-61.814-77.362c-0.398-0.842-0.785-1.692-1.175-2.54H241.003z M74.352,345.578h71.003
	c2.11,5.211,4.343,10.333,6.711,15.347c12.789,27.083,29.06,50.386,48.161,69.212c-39.032-9.863-74.829-30.086-104.037-59.294
	C88.235,362.888,80.947,354.443,74.352,345.578z M415.811,370.843c-29.207,29.207-65.002,49.429-104.032,59.293
	c19.1-18.826,35.371-42.13,48.16-69.211c2.368-5.014,4.601-10.136,6.711-15.347h70.999
	C431.053,354.443,423.765,362.888,415.811,370.843z"/>
<path style="fill:#183866;" d="M482.006,211.033c0,37.014-8.852,72.664-25.53,104.551h-79.417
	c9.502-32.429,14.439-67.557,14.439-103.701h-29.994c0,36.492-5.425,71.742-15.829,103.701h-74.678v-103.7h-15.28v255.145
	c0.094,0,0.188,0.003,0.283,0.003c68.381,0,132.667-26.629,181.02-74.98s74.981-112.639,74.981-181.02h-29.995V211.033z
	 M270.997,425.483v-79.904h62.993c-0.39,0.848-0.777,1.698-1.175,2.54C317.306,380.962,296.196,407.292,270.997,425.483z
	 M415.811,370.843c-29.207,29.207-65.002,49.429-104.032,59.293c19.1-18.826,35.371-42.13,48.16-69.211
	c2.368-5.014,4.601-10.136,6.711-15.347h70.999C431.053,354.443,423.765,362.888,415.811,370.843z"/>
<path style="fill:#35B25B;" d="M190.696,226.881H0v-14.997c0-44.705,36.37-81.075,81.074-81.075h28.547
	c44.704,0,81.074,36.37,81.074,81.075V226.881z"/>
<path style="fill:#FDA42D;" d="M512,226.881H321.303v-14.997c0-44.705,36.37-81.075,81.075-81.075h28.547
	c44.704,0,81.074,36.37,81.074,81.075V226.881z"/>
<path style="fill:#EE7F2A;" d="M512,226.881H321.303v-14.997c0-44.705,36.37-81.075,81.075-81.075h28.547
	c44.704,0,81.074,36.37,81.074,81.075V226.881z"/>
<g>
	<path style="fill:#FFDFCF;" d="M95.247,160.803c-31.936,0-57.918-25.981-57.918-57.918s25.982-57.918,57.918-57.918
		s57.918,25.981,57.918,57.918S127.183,160.803,95.247,160.803z"/>
	<path style="fill:#FFDFCF;" d="M416.551,160.803c-31.936,0-57.918-25.981-57.918-57.918s25.982-57.918,57.918-57.918
		s57.918,25.981,57.918,57.918S448.486,160.803,416.551,160.803z"/>
</g>
<path style="fill:#FFCEBF;" d="M416.551,160.803c-31.936,0-57.918-25.981-57.918-57.918s25.982-57.918,57.918-57.918
	s57.918,25.981,57.918,57.918S448.486,160.803,416.551,160.803z"/>
<path style="fill:#EA0016;" d="M351.297,226.881H160.602v-14.997c0-44.705,36.37-81.075,81.074-81.075h28.547
	c44.704,0,81.074,36.37,81.074,81.075V226.881z"/>
<path style="fill:#C30010;" d="M270.223,130.809h-14.506v96.072h95.58v-14.997C351.297,167.179,314.928,130.809,270.223,130.809z"/>
<path style="fill:#FFDFCF;" d="M255.848,160.803c-31.936,0-57.918-25.981-57.918-57.918s25.982-57.918,57.918-57.918
	s57.918,25.981,57.918,57.918S287.785,160.803,255.848,160.803z"/>
<path style="fill:#FFCEBF;" d="M255.848,44.968c-0.044,0-0.088,0.003-0.132,0.003v115.828c0.044,0,0.088,0.003,0.132,0.003
	c31.936,0,57.918-25.981,57.918-57.918S287.785,44.968,255.848,44.968z"/>
<g>
</g>
<g>
</g>
<g>
</g>
<g>
</g>
<g>
</g>
<g>
</g>
<g>
</g>
<g>
</g>
<g>
</g>
<g>
</g>
<g>
</g>
<g>
</g>
<g>
</g>
<g>
</g>
<g>
</g>
</svg>
